<svg width="154" height="50" viewBox="0 0 154 50" fill="none" xmlns="http://www.w3.org/2000/svg">
<rect width="154" height="50" rx="10" fill="#EF7D60"/>
<path d="M62.0864 26.0522V24.2432H66.7593V28.5205C66.3052 28.96 65.646 29.3481 64.7817 29.6851C63.9224 30.0171 63.0508 30.1831 62.167 30.1831C61.0439 30.1831 60.0649 29.9487 59.23 29.48C58.395 29.0063 57.7676 28.3325 57.3477 27.4585C56.9277 26.5796 56.7178 25.625 56.7178 24.5947C56.7178 23.4766 56.9521 22.4829 57.4209 21.6138C57.8896 20.7446 58.5757 20.0781 59.479 19.6143C60.1675 19.2578 61.0244 19.0796 62.0498 19.0796C63.3828 19.0796 64.4229 19.3604 65.1699 19.9219C65.9219 20.4785 66.4053 21.25 66.6201 22.2363L64.4668 22.6392C64.3154 22.1118 64.0298 21.6968 63.6099 21.394C63.1948 21.0864 62.6748 20.9326 62.0498 20.9326C61.1025 20.9326 60.3481 21.2329 59.7866 21.8335C59.23 22.4341 58.9517 23.3252 58.9517 24.5068C58.9517 25.7812 59.2349 26.7383 59.8013 27.3779C60.3677 28.0127 61.1099 28.3301 62.0278 28.3301C62.4819 28.3301 62.936 28.2422 63.3901 28.0664C63.8491 27.8857 64.2422 27.6685 64.5693 27.4146V26.0522H62.0864ZM70.2515 19.2627H72.4194V25.0781C72.4194 26.001 72.4463 26.5991 72.5 26.8726C72.5928 27.312 72.8125 27.666 73.1592 27.9346C73.5107 28.1982 73.9893 28.3301 74.5947 28.3301C75.21 28.3301 75.6738 28.2056 75.9863 27.9565C76.2988 27.7026 76.4868 27.3926 76.5503 27.0264C76.6138 26.6602 76.6455 26.0522 76.6455 25.2026V19.2627H78.8135V24.9023C78.8135 26.1914 78.7549 27.1021 78.6377 27.6343C78.5205 28.1665 78.3032 28.6157 77.9858 28.9819C77.6733 29.3481 77.2534 29.6411 76.7261 29.8608C76.1987 30.0757 75.5103 30.1831 74.6606 30.1831C73.6353 30.1831 72.8564 30.0659 72.3242 29.8315C71.7969 29.5923 71.3794 29.2847 71.0718 28.9087C70.7642 28.5278 70.5615 28.1299 70.4639 27.7148C70.3223 27.0996 70.2515 26.1914 70.2515 24.9902V19.2627ZM92.2886 30H89.9302L88.9927 27.561H84.7007L83.8145 30H81.5146L85.6968 19.2627H87.9893L92.2886 30ZM88.2969 25.752L86.8174 21.7676L85.3672 25.752H88.2969ZM94.9531 30V19.2627H99.5161C100.664 19.2627 101.496 19.3604 102.014 19.5557C102.536 19.7461 102.954 20.0879 103.266 20.5811C103.579 21.0742 103.735 21.6382 103.735 22.2729C103.735 23.0786 103.498 23.7451 103.024 24.2725C102.551 24.7949 101.843 25.1245 100.9 25.2612C101.369 25.5347 101.755 25.835 102.058 26.1621C102.365 26.4893 102.778 27.0703 103.295 27.9053L104.606 30H102.014L100.446 27.6636C99.8896 26.8286 99.5088 26.3037 99.3037 26.0889C99.0986 25.8691 98.8813 25.7202 98.6519 25.6421C98.4224 25.5591 98.0586 25.5176 97.5605 25.5176H97.1211V30H94.9531ZM97.1211 23.8037H98.7251C99.7651 23.8037 100.415 23.7598 100.673 23.6719C100.932 23.584 101.135 23.4326 101.281 23.2178C101.428 23.0029 101.501 22.7344 101.501 22.4121C101.501 22.0508 101.403 21.7603 101.208 21.5405C101.018 21.3159 100.747 21.1743 100.395 21.1157C100.219 21.0913 99.6919 21.0791 98.813 21.0791H97.1211V23.8037ZM107.278 19.2627H111.241C112.134 19.2627 112.815 19.3311 113.284 19.4678C113.914 19.6533 114.454 19.9829 114.903 20.4565C115.352 20.9302 115.694 21.5112 115.928 22.1997C116.163 22.8833 116.28 23.728 116.28 24.7339C116.28 25.6177 116.17 26.3794 115.95 27.019C115.682 27.8003 115.298 28.4326 114.8 28.916C114.424 29.2822 113.917 29.5679 113.277 29.7729C112.798 29.9243 112.159 30 111.358 30H107.278V19.2627ZM109.446 21.0791V28.1909H111.065C111.67 28.1909 112.107 28.1567 112.376 28.0884C112.728 28.0005 113.018 27.8516 113.248 27.6416C113.482 27.4316 113.672 27.0874 113.819 26.6089C113.965 26.1255 114.039 25.4688 114.039 24.6387C114.039 23.8086 113.965 23.1714 113.819 22.7271C113.672 22.2827 113.467 21.936 113.204 21.687C112.94 21.438 112.605 21.2695 112.2 21.1816C111.897 21.1133 111.304 21.0791 110.42 21.0791H109.446ZM129.308 30H126.95L126.012 27.561H121.72L120.834 30H118.534L122.716 19.2627H125.009L129.308 30ZM125.316 25.752L123.837 21.7676L122.387 25.752H125.316ZM131.973 30V19.2627H136.536C137.683 19.2627 138.516 19.3604 139.033 19.5557C139.556 19.7461 139.973 20.0879 140.286 20.5811C140.598 21.0742 140.754 21.6382 140.754 22.2729C140.754 23.0786 140.518 23.7451 140.044 24.2725C139.57 24.7949 138.862 25.1245 137.92 25.2612C138.389 25.5347 138.774 25.835 139.077 26.1621C139.385 26.4893 139.797 27.0703 140.315 27.9053L141.626 30H139.033L137.466 27.6636C136.909 26.8286 136.528 26.3037 136.323 26.0889C136.118 25.8691 135.901 25.7202 135.671 25.6421C135.442 25.5591 135.078 25.5176 134.58 25.5176H134.141V30H131.973ZM134.141 23.8037H135.745C136.785 23.8037 137.434 23.7598 137.693 23.6719C137.952 23.584 138.154 23.4326 138.301 23.2178C138.447 23.0029 138.521 22.7344 138.521 22.4121C138.521 22.0508 138.423 21.7603 138.228 21.5405C138.037 21.3159 137.766 21.1743 137.415 21.1157C137.239 21.0913 136.711 21.0791 135.833 21.0791H134.141V23.8037Z" fill="#69131F"/>
<path d="M46.5 10V39C46.5 39.8284 45.8284 40.5 45 40.5H16C15.1716 40.5 14.5 39.8284 14.5 39V19.4426C14.5 19.0448 14.658 18.6633 14.9393 18.382L19.6607 13.6607L24.382 8.93934C24.6633 8.65804 25.0448 8.5 25.4426 8.5H45C45.8284 8.5 46.5 9.17157 46.5 10Z" stroke="#69131F" stroke-width="3"/>
<rect x="21.5" y="27.3999" width="18" height="13.1" rx="1.5" stroke="#69131F" stroke-width="3"/>
<rect x="27.1001" y="8.5" width="13.8" height="8.2" rx="1.5" stroke="#69131F" stroke-width="3"/>
</svg>
