<svg width="185" height="39" viewBox="0 0 185 39" fill="none" xmlns="http://www.w3.org/2000/svg">
<path d="M1.08398 18.2627H5.04639C5.93994 18.2627 6.62109 18.3311 7.08984 18.4678C7.71973 18.6533 8.25928 18.9829 8.7085 19.4565C9.15771 19.9302 9.49951 20.5112 9.73389 21.1997C9.96826 21.8833 10.0854 22.728 10.0854 23.7339C10.0854 24.6177 9.97559 25.3794 9.75586 26.019C9.4873 26.8003 9.104 27.4326 8.60596 27.916C8.22998 28.2822 7.72217 28.5679 7.08252 28.7729C6.604 28.9243 5.96436 29 5.16357 29H1.08398V18.2627ZM3.25195 20.0791V27.1909H4.87061C5.47607 27.1909 5.91309 27.1567 6.18164 27.0884C6.5332 27.0005 6.82373 26.8516 7.05322 26.6416C7.2876 26.4316 7.47803 26.0874 7.62451 25.6089C7.771 25.1255 7.84424 24.4688 7.84424 23.6387C7.84424 22.8086 7.771 22.1714 7.62451 21.7271C7.47803 21.2827 7.27295 20.936 7.00928 20.687C6.74561 20.438 6.41113 20.2695 6.00586 20.1816C5.70312 20.1133 5.10986 20.0791 4.22607 20.0791H3.25195ZM13.4312 29V18.2627H21.3926V20.0791H15.5991V22.4595H20.9897V24.2686H15.5991V27.1909H21.5977V29H13.4312ZM24.3867 25.5063L26.4961 25.3013C26.623 26.0093 26.8794 26.5293 27.2651 26.8613C27.6558 27.1934 28.1807 27.3594 28.8398 27.3594C29.5381 27.3594 30.063 27.2129 30.4146 26.9199C30.771 26.6221 30.9492 26.2754 30.9492 25.8799C30.9492 25.626 30.8735 25.4111 30.7222 25.2354C30.5757 25.0547 30.3169 24.8984 29.9458 24.7666C29.6919 24.6787 29.1133 24.5225 28.21 24.2979C27.0479 24.0098 26.2324 23.6558 25.7637 23.2358C25.1045 22.645 24.7749 21.9248 24.7749 21.0752C24.7749 20.5283 24.9287 20.0181 25.2363 19.5444C25.5488 19.0659 25.9956 18.7021 26.5767 18.4531C27.1626 18.2041 27.8682 18.0796 28.6934 18.0796C30.041 18.0796 31.0542 18.375 31.7329 18.9658C32.4165 19.5566 32.7754 20.3452 32.8096 21.3315L30.6416 21.4268C30.5488 20.875 30.3486 20.4795 30.041 20.2402C29.7383 19.9961 29.2817 19.874 28.6714 19.874C28.0415 19.874 27.5483 20.0034 27.1919 20.2622C26.9624 20.4282 26.8477 20.6504 26.8477 20.9287C26.8477 21.1826 26.9551 21.3999 27.1699 21.5806C27.4434 21.8101 28.1074 22.0493 29.1621 22.2983C30.2168 22.5474 30.9956 22.8062 31.4985 23.0747C32.0063 23.3384 32.4019 23.7021 32.6851 24.166C32.9731 24.625 33.1172 25.1938 33.1172 25.8726C33.1172 26.4878 32.9463 27.064 32.6045 27.6011C32.2627 28.1382 31.7793 28.5386 31.1543 28.8022C30.5293 29.061 29.7505 29.1904 28.8179 29.1904C27.4604 29.1904 26.418 28.8779 25.6904 28.2529C24.9629 27.623 24.5283 26.7075 24.3867 25.5063ZM43.311 25.0522L45.4131 25.7188C45.0908 26.8906 44.5537 27.7622 43.8018 28.3335C43.0547 28.8999 42.105 29.1831 40.9526 29.1831C39.5269 29.1831 38.355 28.6973 37.437 27.7256C36.519 26.749 36.0601 25.416 36.0601 23.7266C36.0601 21.9395 36.5215 20.5527 37.4443 19.5664C38.3672 18.5752 39.5806 18.0796 41.0845 18.0796C42.3979 18.0796 43.4648 18.4678 44.2852 19.2441C44.7734 19.7031 45.1396 20.3623 45.3838 21.2217L43.2378 21.7344C43.1108 21.1777 42.8447 20.7383 42.4395 20.416C42.0391 20.0938 41.5508 19.9326 40.9746 19.9326C40.1787 19.9326 39.5317 20.2183 39.0337 20.7896C38.5405 21.3608 38.2939 22.2861 38.2939 23.5654C38.2939 24.9229 38.5381 25.8896 39.0264 26.4658C39.5146 27.042 40.1494 27.3301 40.9307 27.3301C41.5068 27.3301 42.0024 27.147 42.4175 26.7808C42.8325 26.4146 43.1304 25.8384 43.311 25.0522ZM58.4634 29H56.105L55.1675 26.561H50.8755L49.9893 29H47.6895L51.8716 18.2627H54.1641L58.4634 29ZM54.4717 24.752L52.9922 20.7676L51.542 24.752H54.4717ZM62.4243 29V20.0791H59.2383V18.2627H67.771V20.0791H64.5923V29H62.4243ZM79.2466 29H76.8882L75.9507 26.561H71.6587L70.7725 29H68.4727L72.6548 18.2627H74.9473L79.2466 29ZM75.2549 24.752L73.7754 20.7676L72.3252 24.752H75.2549ZM81.9624 29V18.3506H84.1304V27.1909H89.521V29H81.9624ZM92.1343 23.6973C92.1343 22.6035 92.2979 21.6855 92.625 20.9434C92.8691 20.3965 93.2012 19.9058 93.6211 19.4712C94.0459 19.0366 94.5098 18.7144 95.0127 18.5044C95.6816 18.2212 96.4531 18.0796 97.3271 18.0796C98.9092 18.0796 100.174 18.5703 101.121 19.5518C102.073 20.5332 102.549 21.8979 102.549 23.646C102.549 25.3794 102.078 26.7368 101.136 27.7183C100.193 28.6948 98.9336 29.1831 97.3564 29.1831C95.7598 29.1831 94.4902 28.6973 93.5479 27.7256C92.6055 26.749 92.1343 25.4062 92.1343 23.6973ZM94.3682 23.624C94.3682 24.8398 94.6489 25.7627 95.2104 26.3926C95.772 27.0176 96.4849 27.3301 97.3491 27.3301C98.2134 27.3301 98.9214 27.02 99.4731 26.3999C100.03 25.7749 100.308 24.8398 100.308 23.5947C100.308 22.3643 100.037 21.4463 99.4951 20.8408C98.958 20.2354 98.2427 19.9326 97.3491 19.9326C96.4556 19.9326 95.7354 20.2402 95.1885 20.8555C94.6416 21.4658 94.3682 22.3887 94.3682 23.624ZM110.744 25.0522V23.2432H115.417V27.5205C114.962 27.96 114.303 28.3481 113.439 28.6851C112.58 29.0171 111.708 29.1831 110.824 29.1831C109.701 29.1831 108.722 28.9487 107.887 28.48C107.052 28.0063 106.425 27.3325 106.005 26.4585C105.585 25.5796 105.375 24.625 105.375 23.5947C105.375 22.4766 105.609 21.4829 106.078 20.6138C106.547 19.7446 107.233 19.0781 108.136 18.6143C108.825 18.2578 109.682 18.0796 110.707 18.0796C112.04 18.0796 113.08 18.3604 113.827 18.9219C114.579 19.4785 115.062 20.25 115.277 21.2363L113.124 21.6392C112.973 21.1118 112.687 20.6968 112.267 20.394C111.852 20.0864 111.332 19.9326 110.707 19.9326C109.76 19.9326 109.005 20.2329 108.444 20.8335C107.887 21.4341 107.609 22.3252 107.609 23.5068C107.609 24.7812 107.892 25.7383 108.458 26.3779C109.025 27.0127 109.767 27.3301 110.685 27.3301C111.139 27.3301 111.593 27.2422 112.047 27.0664C112.506 26.8857 112.899 26.6685 113.227 26.4146V25.0522H110.744ZM128.606 29H126.248L125.31 26.561H121.018L120.132 29H117.832L122.014 18.2627H124.307L128.606 29ZM124.614 24.752L123.135 20.7676L121.685 24.752H124.614ZM131.271 29V18.2627H135.833C136.981 18.2627 137.813 18.3604 138.331 18.5557C138.854 18.7461 139.271 19.0879 139.583 19.5811C139.896 20.0742 140.052 20.6382 140.052 21.2729C140.052 22.0786 139.815 22.7451 139.342 23.2725C138.868 23.7949 138.16 24.1245 137.218 24.2612C137.687 24.5347 138.072 24.835 138.375 25.1621C138.683 25.4893 139.095 26.0703 139.613 26.9053L140.924 29H138.331L136.764 26.6636C136.207 25.8286 135.826 25.3037 135.621 25.0889C135.416 24.8691 135.199 24.7202 134.969 24.6421C134.74 24.5591 134.376 24.5176 133.878 24.5176H133.438V29H131.271ZM133.438 22.8037H135.042C136.083 22.8037 136.732 22.7598 136.991 22.6719C137.25 22.584 137.452 22.4326 137.599 22.2178C137.745 22.0029 137.818 21.7344 137.818 21.4121C137.818 21.0508 137.721 20.7603 137.525 20.5405C137.335 20.3159 137.064 20.1743 136.712 20.1157C136.537 20.0913 136.009 20.0791 135.13 20.0791H133.438V22.8037Z" fill="#EF7D60"/>
<path d="M151 10.0769H183.308" stroke="#EF7D60" stroke-width="3" stroke-linecap="round" stroke-linejoin="round"/>
<path d="M155.039 10.0769H179.269V34.3077C179.269 35.0217 178.986 35.7066 178.481 36.2114C177.976 36.7162 177.291 37 176.577 37H157.731C157.017 37 156.332 36.7162 155.827 36.2114C155.322 35.7066 155.039 35.0217 155.039 34.3077V10.0769Z" stroke="#EF7D60" stroke-width="3" stroke-linecap="round" stroke-linejoin="round"/>
<path d="M160.423 10.0769V8.73077C160.423 6.94566 161.132 5.23365 162.394 3.97139C163.657 2.70913 165.369 2 167.154 2C168.939 2 170.651 2.70913 171.913 3.97139C173.175 5.23365 173.884 6.94566 173.884 8.73077V10.0769" stroke="#EF7D60" stroke-width="3" stroke-linecap="round" stroke-linejoin="round"/>
<path d="M163.116 18.158V28.9313" stroke="#EF7D60" stroke-width="3" stroke-linecap="round" stroke-linejoin="round"/>
<path d="M171.192 18.158V28.9313" stroke="#EF7D60" stroke-width="3" stroke-linecap="round" stroke-linejoin="round"/>
</svg>
