<svg width="500" height="518" viewBox="0 0 500 518" fill="none" xmlns="http://www.w3.org/2000/svg">
<path fill-rule="evenodd" clip-rule="evenodd" d="M187.506 1.16378C186.318 1.73752 184.841 3.31934 184.221 4.67794C183.441 6.38906 183.076 23.8063 183.032 61.3934C182.993 93.7027 182.607 114.747 182.078 113.432C181.588 112.219 180.367 110.795 179.362 110.268C175.257 108.114 77.3041 86.5502 74.6502 87.2158C73.1656 87.5886 71.307 88.9088 70.5197 90.1502C69.7324 91.3916 53.3268 162.165 34.0611 247.424C6.30711 370.253 -0.752172 402.909 0.0613879 404.695C0.626332 405.934 2.13319 407.615 3.40861 408.43C4.68504 409.244 28.1701 415.023 55.5977 421.27C110.272 433.725 109.492 433.643 112.491 427.252C113.403 425.311 129.548 355.54 148.369 272.206L182.59 120.69L183.095 274.947C183.574 421.294 183.694 429.298 185.405 431.009C187.094 432.698 191.866 432.845 260.191 433.318L333.174 433.823L333.68 473.56L334.185 513.296L336.571 515.227C338.818 517.045 341.013 517.157 374.267 517.157C411.305 517.157 414.288 516.829 415.924 512.566C416.269 511.667 416.552 487.357 416.552 458.544V406.158L414.196 403.421C412.287 401.202 410.758 400.595 406.111 400.209L400.381 399.734V382.151C400.381 368.959 400.697 364.473 401.645 364.189C417.628 359.41 422.275 357.795 428.436 354.875C452.828 343.315 475.084 321.517 487.058 297.459C497.158 277.169 501.648 253.139 499.456 231.124C496.358 200.018 484.667 175.109 463.033 153.518C442.852 133.38 417.658 121.329 388.001 117.629L383.201 117.03V81.9148V46.7994L380.593 44.3499L377.986 41.9014L330.567 41.6196L283.148 41.3388L283.116 23.4377C283.082 4.73046 282.824 3.50419 278.414 1.1567C275.508 -0.38977 190.703 -0.383709 187.506 1.16378ZM266.978 97.8321V178.511L261.984 188.994C245.872 222.817 245.872 260.989 261.984 294.811L266.978 305.294V361.226V417.156H233.627H200.276V217.155V17.1538H233.627H266.978V97.8321ZM216.446 41.9014V50.4873H233.122H249.797V41.9014V33.3155H233.122H216.446V41.9014ZM366.809 70.942L366.525 83.3158L324.837 83.5794L283.148 83.8431V71.2056V58.5682H325.121H367.093L366.809 70.942ZM216.446 75.2349V83.8209H233.122H249.797V75.2349V66.649H233.122H216.446V75.2349ZM216.446 108.568V117.154H233.122H249.797V108.568V99.9826H233.122H216.446V108.568ZM367.031 108.507V117.03L362.23 117.629C334.179 121.129 310.001 132.119 289.97 150.476L283.148 156.727V128.355V99.9826H325.089H367.031V108.507ZM126.184 114.753C147.203 119.54 164.486 123.528 164.595 123.615C164.885 123.851 157.14 157.575 156.695 158.012C156.183 158.515 77.6892 139.319 76.7371 138.459C76.3268 138.087 77.6679 130.388 79.7185 121.349C83.2911 105.596 83.5397 104.939 85.7075 105.483C86.9516 105.795 105.166 109.966 126.184 114.753ZM387.749 134.436C417.551 138.086 443.575 153.137 461.986 177.372C469.062 186.686 476.584 202.334 479.909 214.653C482.36 223.734 482.63 226.431 482.63 241.903C482.63 257.267 482.351 260.106 479.979 268.879C474.815 287.98 465.147 304.657 451.091 318.704C409.253 360.522 341.228 360.556 299.023 318.782C284.369 304.277 275.286 288.328 269.336 266.65C266.763 257.277 266.751 226.6 269.316 217.155C280.107 177.44 307.936 148.413 345.302 137.898C360.613 133.589 372.752 132.599 387.749 134.436ZM357.038 151.987C331.674 157.726 312.631 170.71 298.368 191.988C278.105 222.219 278.539 263.282 299.443 293.504C309.831 308.522 326.944 321.944 343.247 327.859C365.451 335.913 391.72 334.96 412.978 325.326C438.123 313.931 457.578 290.224 464.198 262.914C467.184 250.597 467.176 233.178 464.18 220.815C456.278 188.205 431.911 162.942 399.195 153.437C389.469 150.611 366.595 149.824 357.038 151.987ZM113.271 164.994C134.474 170.195 152.095 174.723 152.43 175.057C152.879 175.507 111.716 360.368 110.968 361.254C110.416 361.909 31.0302 341.504 30.7392 340.632C30.4471 339.756 66.4145 178.62 71.0958 159.831C71.684 157.47 72.7401 155.538 73.4425 155.538C74.1449 155.538 92.0674 159.794 113.271 164.994ZM393.812 169.228C438.757 181.082 462.563 231.517 442.895 273.216C435.24 289.443 423.709 301.29 408.045 309.019C396.805 314.566 388.116 316.512 374.61 316.508C342.081 316.498 314.709 296.672 303.684 265.135C301.072 257.659 300.861 255.919 300.88 241.903C300.899 228.261 301.165 225.968 303.549 218.894C312.658 191.859 334.933 172.909 363.828 167.614C370.317 166.424 386.481 167.295 393.812 169.228ZM299.823 341.52C312.97 351.501 326.232 358.01 342.442 362.439L349.344 364.325L349.648 370.033L349.951 375.742H316.549H283.148V351.353V326.964L288.454 331.941C291.371 334.677 296.488 338.988 299.823 341.52ZM96.5152 375.063C101.979 376.452 106.623 377.761 106.834 377.972C107.197 378.335 99.4905 413.174 98.9226 413.742C98.5719 414.093 18.9956 395.899 18.4327 395.339C18.0244 394.933 23.5424 368.42 25.5415 361.181L26.4612 357.852L56.5204 365.195C73.0534 369.234 91.0507 373.674 96.5152 375.063ZM383.201 383.318V399.984H375.116H367.031V383.318V366.651H375.116H383.201V383.318ZM216.446 391.904V399.984H233.122H249.797V391.904V383.823H233.122H216.446V391.904ZM349.85 395.944C349.85 399.973 349.839 399.984 345.873 399.984C341.057 399.984 336.83 401.48 335.057 403.812C334.335 404.762 333.729 408.153 333.712 411.348L333.68 417.156H308.414H283.148V404.53V391.904H316.499H349.85V395.944ZM400.381 425.237V433.318H375.116H349.85V425.237V417.156H375.116H400.381V425.237ZM400.381 458.571V466.651H375.116H349.85V458.571V450.49H375.116H400.381V458.571ZM400.381 491.904V499.985H375.116H349.85V491.904V483.823H375.116H400.381V491.904Z" fill="#69131F"/>
</svg>
